<svg width="3831" height="3832" viewBox="0 0 3831 3832" fill="none" xmlns="http://www.w3.org/2000/svg">
<rect x="0.607422" y="0.88916" width="3830.25" height="3830.25" fill="white"/>
<rect x="0.607422" y="0.88916" width="3830.25" height="3830.25" fill="#2D3035"/>
<path d="M1633.47 2975.95C1198.43 2975.95 843.229 2640.42 843.229 2200.03V1433.09H1276.52V2474.44C1276.52 2522.37 1303.16 2549.32 1350.52 2549.32H1916.4C1963.76 2549.32 1990.4 2522.37 1990.4 2474.44V1433.09H2423.71V2200.03C2423.71 2640.42 2068.55 2975.95 1633.47 2975.95Z" fill="#FDB51E"/>
<path d="M2197.91 843.544C2632.95 843.544 2988.15 1179.07 2988.15 1619.45V2386.4H2554.86V1345.04C2554.86 1297.12 2528.22 1270.16 2480.86 1270.16H1914.98C1867.62 1270.16 1840.98 1297.12 1840.98 1345.04V2386.4H1407.67V1619.45C1407.67 1179.07 1762.83 843.544 2197.91 843.544Z" fill="#FDB51E"/>
</svg>
